<svg width="32" height="32" viewBox="0 0 32 32" fill="none" xmlns="http://www.w3.org/2000/svg">
<path d="M23.7867 20.8786L24.0214 21.1146L24.2587 20.8786C24.5373 20.6 24.868 20.379 25.232 20.2283C25.596 20.0775 25.9861 19.9999 26.38 19.9999C26.774 19.9999 27.1641 20.0775 27.5281 20.2283C27.8921 20.379 28.2228 20.6 28.5014 20.8786C28.7799 21.1572 29.0009 21.4879 29.1517 21.8519C29.3025 22.2158 29.3801 22.6059 29.3801 22.9999C29.3801 23.3939 29.3025 23.784 29.1517 24.148C29.0009 24.512 28.7799 24.8427 28.5014 25.1213L24.0214 29.5999L19.544 25.1213C18.9814 24.5586 18.6653 23.7956 18.6653 22.9999C18.6653 22.2043 18.9814 21.4412 19.544 20.8786C20.1066 20.316 20.8697 19.9999 21.6654 19.9999C22.461 19.9999 23.2241 20.316 23.7867 20.8786ZM15.9987 18.6666V21.3333C13.877 21.3333 11.8421 22.1761 10.3418 23.6764C8.84155 25.1767 7.9987 27.2115 7.9987 29.3333H5.33203C5.33206 26.562 6.41061 23.8996 8.33932 21.9096C10.268 19.9197 12.8955 18.7585 15.6654 18.6719L15.9987 18.6666ZM15.9987 1.33325C20.4187 1.33325 23.9987 4.91325 23.9987 9.33325C23.9994 11.4033 23.1975 13.393 21.7615 14.8839C20.3255 16.3749 18.3673 17.251 16.2987 17.3279L15.9987 17.3333C11.5787 17.3333 7.9987 13.7533 7.9987 9.33325C7.99796 7.26321 8.7999 5.27353 10.2359 3.78257C11.6719 2.29161 13.6301 1.41555 15.6987 1.33859L15.9987 1.33325ZM15.9987 3.99992C13.052 3.99992 10.6654 6.38658 10.6654 9.33325C10.6654 12.2799 13.052 14.6666 15.9987 14.6666C18.9454 14.6666 21.332 12.2799 21.332 9.33325C21.332 6.38658 18.9454 3.99992 15.9987 3.99992Z" fill="#273F63"/>
</svg>
