<svg width="20" height="20" viewBox="0 0 20 20" fill="none" xmlns="http://www.w3.org/2000/svg">
<g clip-path="url(#clip0_1901_16589)">
<path d="M10.7199 2.49988L18.6582 16.2499C18.7313 16.3766 18.7699 16.5203 18.7699 16.6665C18.7699 16.8128 18.7314 16.9565 18.6582 17.0832C18.5851 17.2099 18.4799 17.3151 18.3532 17.3882C18.2265 17.4614 18.0828 17.4999 17.9365 17.4999H2.05987C1.9136 17.4999 1.7699 17.4614 1.64322 17.3882C1.51654 17.3151 1.41134 17.2099 1.3382 17.0832C1.26506 16.9565 1.22656 16.8128 1.22656 16.6665C1.22656 16.5203 1.26507 16.3766 1.33821 16.2499L9.27654 2.49988C9.34968 2.37321 9.45488 2.26802 9.58156 2.19489C9.70824 2.12175 9.85193 2.08325 9.99821 2.08325C10.1445 2.08325 10.2882 2.12175 10.4149 2.19489C10.5415 2.26802 10.6467 2.37321 10.7199 2.49988V2.49988ZM3.50321 15.8332H16.4932L9.99821 4.58322L3.50321 15.8332V15.8332ZM9.16487 13.3332H10.8315V14.9999H9.16487V13.3332ZM9.16487 7.49988H10.8315V11.6665H9.16487V7.49988Z" fill="#4D2908"/>
</g>
<defs>
<clipPath id="clip0_1901_16589">
<rect width="20" height="20" fill="white"/>
</clipPath>
</defs>
</svg>
