<svg width="8" height="8" viewBox="0 0 8 8" fill="none" xmlns="http://www.w3.org/2000/svg">
<path d="M6.54023 1.47595C6.39081 1.41278 6.24138 1.36109 6.08046 1.32663C5.91379 1.29218 5.74713 1.27495 5.57471 1.27495H1.26437V5.57071C1.26437 5.73726 1.28161 5.9038 1.31609 6.05887C0.729885 5.69131 0.344828 5.04235 0.344828 4.29576V0.34458H4.3046C4.96552 0.34458 5.55747 0.654702 5.94253 1.13137C6.11494 1.15434 6.27586 1.19454 6.43104 1.25197C6.0115 0.505384 5.21264 0 4.29885 0H0V4.29576C0 5.2893 0.603448 6.15075 1.45977 6.52405C1.56322 6.75951 1.70115 6.97775 1.86782 7.16726C2.31609 7.67839 2.97126 8 3.70115 8H8V3.70424C8 2.7107 7.39655 1.85499 6.54023 1.47595Z" fill="#454545"/>
</svg>
