<svg width="32" height="32" viewBox="0 0 32 32" fill="none" xmlns="http://www.w3.org/2000/svg">
<path d="M17.332 2.66675V4.00008H26.6654V6.66675H17.332V25.3334H22.6654V28.0001H9.33203V25.3334H14.6654V6.66675H5.33203V4.00008H14.6654V2.66675H17.332ZM6.66536 8.45741L10.436 12.2294C11.4014 13.1934 11.9987 14.5267 11.9987 16.0001C11.9987 18.9467 9.61203 21.3334 6.66536 21.3334C3.7187 21.3334 1.33203 18.9467 1.33203 16.0001C1.33203 14.5267 1.92936 13.1934 2.8947 12.2294L6.66536 8.45741ZM25.332 8.45741L29.1027 12.2294C30.068 13.1934 30.6654 14.5267 30.6654 16.0001C30.6654 18.9467 28.2787 21.3334 25.332 21.3334C22.3854 21.3334 19.9987 18.9467 19.9987 16.0001C19.9987 14.5267 20.596 13.1934 21.5614 12.2294L25.332 8.45741ZM6.66536 12.2294L4.78003 14.1147C4.28136 14.6134 3.9987 15.2801 3.9987 16.0001C3.9987 17.4734 5.19203 18.6667 6.66536 18.6667C8.1387 18.6667 9.33203 17.4734 9.33203 16.0001C9.33203 15.2801 9.04936 14.6134 8.5507 14.1147L6.66536 12.2294ZM25.332 12.2294L23.4467 14.1147C22.948 14.6134 22.6654 15.2801 22.6654 16.0001C22.6654 17.4734 23.8587 18.6667 25.332 18.6667C26.8054 18.6667 27.9987 17.4734 27.9987 16.0001C27.9987 15.2801 27.716 14.6134 27.2174 14.1147L25.332 12.2294Z" fill="#273F63"/>
</svg>
