<svg width="24" height="24" viewBox="0 0 24 24" fill="none" xmlns="http://www.w3.org/2000/svg">
<path d="M4.00059 20V14C4.00059 11.8783 4.84345 9.84344 6.34374 8.34315C7.84403 6.84285 9.87886 6 12.0006 6C14.1223 6 16.1572 6.84285 17.6574 8.34315C19.1577 9.84344 20.0006 11.8783 20.0006 14V20H21.0006V22H3.00059V20H4.00059ZM6.00059 20H18.0006V14C18.0006 12.4087 17.3685 10.8826 16.2432 9.75736C15.118 8.63214 13.5919 8 12.0006 8C10.4093 8 8.88317 8.63214 7.75795 9.75736C6.63273 10.8826 6.00059 12.4087 6.00059 14V20ZM11.0006 2H13.0006V5H11.0006V2ZM19.7786 4.808L21.1926 6.222L19.0726 8.343L17.6576 6.929L19.7786 4.808ZM2.80859 6.222L4.22259 4.808L6.34359 6.928L4.93059 8.344L2.80859 6.222ZM7.00059 14C7.00059 12.6739 7.52738 11.4021 8.46506 10.4645C9.40274 9.52678 10.6745 9 12.0006 9V11C11.2049 11 10.4419 11.3161 9.87927 11.8787C9.31666 12.4413 9.00059 13.2044 9.00059 14H7.00059Z" fill="#454545"/>
</svg>
