<svg width="163" height="57" viewBox="0 0 163 57" fill="none" xmlns="http://www.w3.org/2000/svg">
<g clip-path="url(#clip0_872_5037)">
<path d="M69.5142 22.0807C69.3511 21.9172 69.2695 21.6719 69.2695 21.3856V12.4717C69.2695 12.1855 69.3511 11.9401 69.5142 11.7766C69.6772 11.613 69.9219 11.5312 70.2073 11.5312H73.2243C74.9774 11.5312 76.3636 12.0219 77.3421 12.9624C78.3206 13.9028 78.8098 15.2522 78.8098 16.9287C78.8098 18.646 78.3206 19.9954 77.3421 20.9358C76.3636 21.8763 75.0182 22.367 73.2243 22.367H70.2073C69.8811 22.3261 69.6772 22.2443 69.5142 22.0807ZM73.1019 20.7314C75.5889 20.7314 76.812 19.4638 76.812 16.9287C76.812 14.3935 75.5889 13.1259 73.1019 13.1259H71.2265V20.7314H73.1019Z" fill="white"/>
<path d="M91.8559 21.5489C91.8559 21.7943 91.7744 21.9987 91.5705 22.1623C91.3667 22.3258 91.1628 22.4076 90.9182 22.4076C90.7551 22.4076 90.592 22.3667 90.4697 22.2849C90.3474 22.2032 90.2251 22.0805 90.1436 21.876L89.2466 19.8316H83.8649L82.968 21.876C82.8864 22.0396 82.7641 22.2032 82.6418 22.2849C82.5195 22.3667 82.3564 22.4076 82.1526 22.4076C81.9079 22.4076 81.7041 22.3258 81.5002 22.1623C81.2964 21.9987 81.2148 21.7943 81.2148 21.5489C81.2148 21.4263 81.2556 21.3036 81.2964 21.14L85.4957 12.0626C85.5773 11.8581 85.7404 11.6946 85.9034 11.6128C86.1073 11.4901 86.3111 11.4492 86.515 11.4492C86.7188 11.4492 86.9227 11.4901 87.1265 11.6128C87.3304 11.7354 87.4527 11.8581 87.5342 12.0626L91.7744 21.14C91.8559 21.3036 91.8559 21.4263 91.8559 21.5489ZM84.5172 18.2778H88.5535L86.5558 13.739L84.5172 18.2778Z" fill="white"/>
<path d="M96.3414 22.1625C96.1784 21.999 96.0561 21.7536 96.0561 21.4674V13.1668H93.2837C92.6721 13.1668 92.3867 12.8806 92.3867 12.349C92.3867 11.8175 92.7129 11.5312 93.2837 11.5312H100.826C101.438 11.5312 101.723 11.8175 101.723 12.349C101.723 12.8806 101.438 13.1668 100.826 13.1668H98.0538V21.4265C98.0538 21.7127 97.9723 21.9581 97.7684 22.1216C97.6053 22.2852 97.3607 22.4079 97.0753 22.4079C96.7899 22.4079 96.5453 22.3261 96.3414 22.1625Z" fill="white"/>
<path d="M112.977 21.5489C112.977 21.7943 112.895 21.9987 112.692 22.1623C112.488 22.3258 112.284 22.4076 112.039 22.4076C111.876 22.4076 111.713 22.3667 111.591 22.2849C111.428 22.2032 111.346 22.0805 111.265 21.876L110.368 19.8316H104.986L104.089 21.876C104.008 22.0396 103.885 22.2032 103.763 22.2849C103.641 22.3667 103.478 22.4076 103.274 22.4076C103.029 22.4076 102.825 22.3258 102.621 22.1623C102.417 21.9987 102.336 21.7943 102.336 21.5489C102.336 21.4263 102.377 21.3036 102.417 21.14L106.617 12.0626C106.698 11.8581 106.861 11.6946 107.025 11.6128C107.228 11.4901 107.432 11.4492 107.636 11.4492C107.84 11.4492 108.044 11.4901 108.248 11.6128C108.452 11.7354 108.574 11.8581 108.655 12.0626L112.895 21.14C112.936 21.3036 112.977 21.4263 112.977 21.5489ZM105.638 18.2778H109.675L107.636 13.739L105.638 18.2778Z" fill="white"/>
<path d="M78.0781 28.8683C78.2412 29.0318 78.3228 29.2772 78.3228 29.5634V38.5591C78.3228 38.8453 78.2412 39.0906 78.0781 39.2951C77.915 39.4995 77.6704 39.5813 77.4258 39.5813C77.0996 39.5813 76.855 39.4586 76.6919 39.2133L71.1064 31.935V38.5591C71.1064 38.8453 71.0249 39.0906 70.8618 39.2951C70.6987 39.4995 70.4948 39.5813 70.2094 39.5813C69.9241 39.5813 69.7202 39.4995 69.5571 39.2951C69.394 39.1315 69.3125 38.8862 69.3125 38.5591V29.5634C69.3125 29.2772 69.394 29.0318 69.5571 28.8683C69.7202 28.7047 69.9648 28.582 70.2502 28.582C70.5764 28.582 70.821 28.7047 70.9841 28.95L76.5289 36.1875V29.6043C76.5289 29.318 76.6104 29.0727 76.7735 28.9091C76.9366 28.7456 77.1812 28.6229 77.4258 28.6229C77.6704 28.6229 77.915 28.7047 78.0781 28.8683Z" fill="white"/>
<path d="M83.2588 38.4794C82.4841 37.7025 82.1172 36.5985 82.1172 35.1264V29.6063C82.1172 29.3201 82.1987 29.0748 82.3618 28.9112C82.5249 28.7477 82.7695 28.625 83.0549 28.625C83.3403 28.625 83.5849 28.7068 83.748 28.9112C83.9111 29.0748 83.9926 29.3201 83.9926 29.6063V35.2491C83.9926 36.1896 84.1965 36.8847 84.645 37.3754C85.0934 37.866 85.705 38.0705 86.5612 38.0705C87.3766 38.0705 88.0289 37.8251 88.4774 37.3345C88.9258 36.8438 89.1297 36.1487 89.1297 35.2491V29.6063C89.1297 29.3201 89.2112 29.0748 89.3743 28.9112C89.5374 28.7477 89.782 28.625 90.0674 28.625C90.3528 28.625 90.5974 28.7068 90.7605 28.9112C90.9236 29.1157 91.0051 29.3201 91.0051 29.6063V35.1264C91.0051 36.5985 90.6382 37.7025 89.8635 38.4794C89.0889 39.2563 87.9881 39.6243 86.5204 39.6243C85.175 39.6243 84.0334 39.2563 83.2588 38.4794Z" fill="white"/>
<path d="M97.7282 39.2935C97.5651 39.1299 97.4428 38.8846 97.4428 38.5984V30.3387H94.6704C94.0588 30.3387 93.7734 30.0525 93.7734 29.5209C93.7734 28.9894 94.0996 28.7031 94.6704 28.7031H102.213C102.824 28.7031 103.11 28.9894 103.11 29.5209C103.11 30.0525 102.824 30.3387 102.213 30.3387H99.4405V38.5984C99.4405 38.8846 99.359 39.1299 99.1551 39.2935C98.992 39.4571 98.7474 39.5797 98.462 39.5797C98.1359 39.5797 97.8912 39.498 97.7282 39.2935Z" fill="white"/>
<path d="M114.609 38.8028C114.609 39.0482 114.528 39.2117 114.324 39.3753C114.12 39.5389 113.916 39.6206 113.672 39.6206C113.509 39.6206 113.346 39.5797 113.223 39.498C113.101 39.4162 112.938 39.2935 112.856 39.1708L110.818 36.0632C110.614 35.7361 110.41 35.4908 110.165 35.3681C109.921 35.2455 109.635 35.1637 109.268 35.1637H107.76V38.5984C107.76 38.8846 107.678 39.13 107.515 39.3344C107.352 39.498 107.108 39.6206 106.822 39.6206C106.537 39.6206 106.292 39.5389 106.129 39.3344C105.966 39.1708 105.844 38.9255 105.844 38.5984V29.6436C105.844 29.3574 105.925 29.112 106.088 28.9485C106.251 28.7849 106.496 28.7031 106.781 28.7031H110.614C111.837 28.7031 112.775 28.9894 113.386 29.5209C114.039 30.0525 114.324 30.8703 114.324 31.8925C114.324 32.7103 114.079 33.4054 113.631 33.937C113.142 34.4686 112.489 34.8366 111.633 34.9592C111.919 35.041 112.204 35.1637 112.408 35.3272C112.612 35.4908 112.856 35.777 113.06 36.1041L114.446 38.2304C114.569 38.4348 114.609 38.6393 114.609 38.8028ZM111.959 33.2419C112.285 32.9556 112.489 32.5467 112.489 31.9334C112.489 31.3609 112.326 30.9112 111.959 30.6249C111.633 30.3387 111.062 30.216 110.328 30.216H107.76V33.6508H110.328C111.062 33.6508 111.592 33.4872 111.959 33.2419Z" fill="white"/>
<path d="M118.239 39.3381C118.075 39.1745 117.953 38.9292 117.953 38.602V29.6063C117.953 29.3201 118.035 29.0748 118.239 28.9112C118.442 28.7477 118.646 28.625 118.932 28.625C119.258 28.625 119.462 28.7068 119.665 28.9112C119.829 29.0748 119.951 29.3201 119.951 29.6063V38.602C119.951 38.8883 119.869 39.1336 119.665 39.3381C119.502 39.5425 119.258 39.6243 118.932 39.6243C118.646 39.5834 118.402 39.5016 118.239 39.3381Z" fill="white"/>
<path d="M126.595 39.2935C126.432 39.1299 126.31 38.8846 126.31 38.5984V30.3387H123.538C122.926 30.3387 122.641 30.0525 122.641 29.5209C122.641 28.9894 122.967 28.7031 123.538 28.7031H131.08C131.692 28.7031 131.977 28.9894 131.977 29.5209C131.977 30.0525 131.692 30.3387 131.08 30.3387H128.308V38.5984C128.308 38.8846 128.226 39.1299 128.022 39.2935C127.859 39.4571 127.615 39.5797 127.329 39.5797C127.003 39.5797 126.758 39.498 126.595 39.2935Z" fill="white"/>
<path d="M134.953 39.3381C134.79 39.1745 134.668 38.9292 134.668 38.602V29.6063C134.668 29.3201 134.75 29.0748 134.953 28.9112C135.157 28.7477 135.361 28.625 135.646 28.625C135.973 28.625 136.176 28.7068 136.38 28.9112C136.543 29.0748 136.666 29.3201 136.666 29.6063V38.602C136.666 38.8883 136.584 39.1336 136.38 39.3381C136.217 39.5425 135.973 39.6243 135.646 39.6243C135.361 39.5834 135.116 39.5016 134.953 39.3381Z" fill="white"/>
<path d="M142.577 38.968C141.803 38.5182 141.232 37.864 140.783 37.0462C140.335 36.2284 140.172 35.247 140.172 34.1021C140.172 32.9981 140.376 32.0167 140.783 31.1581C141.191 30.2994 141.803 29.686 142.577 29.2363C143.352 28.7865 144.249 28.582 145.309 28.582C146.369 28.582 147.266 28.7865 148.041 29.2363C148.815 29.686 149.386 30.3403 149.794 31.1581C150.201 31.9759 150.405 32.9572 150.405 34.1021C150.405 35.2061 150.201 36.1875 149.794 37.0462C149.386 37.9048 148.774 38.5182 148 38.968C147.225 39.4178 146.328 39.6222 145.268 39.6222C144.249 39.6222 143.352 39.4178 142.577 38.968ZM147.592 37.0462C148.163 36.351 148.407 35.3697 148.407 34.1021C148.407 32.8345 148.122 31.8532 147.592 31.1581C147.021 30.4629 146.247 30.1358 145.268 30.1358C144.29 30.1358 143.474 30.4629 142.944 31.1581C142.373 31.8532 142.129 32.8345 142.129 34.1021C142.129 35.3697 142.414 36.351 142.944 37.0462C143.515 37.7413 144.29 38.0684 145.268 38.0684C146.287 38.0684 147.062 37.7004 147.592 37.0462Z" fill="white"/>
<path d="M162.76 28.8703C162.923 29.0339 163.004 29.2792 163.004 29.5655V38.5612C163.004 38.8474 162.923 39.0927 162.76 39.2972C162.596 39.5016 162.352 39.5834 162.107 39.5834C161.781 39.5834 161.536 39.4607 161.373 39.2154L155.747 31.9779V38.602C155.747 38.8883 155.665 39.1336 155.502 39.3381C155.339 39.5425 155.135 39.6243 154.85 39.6243C154.565 39.6243 154.361 39.5425 154.198 39.3381C154.035 39.1745 153.953 38.9292 153.953 38.602V29.6063C153.953 29.3201 154.035 29.0748 154.198 28.9112C154.361 28.7477 154.605 28.625 154.891 28.625C155.217 28.625 155.462 28.7477 155.625 28.993L161.169 36.2304V29.6063C161.169 29.3201 161.251 29.0748 161.414 28.9112C161.577 28.7477 161.822 28.625 162.066 28.625C162.393 28.625 162.596 28.7068 162.76 28.8703Z" fill="white"/>
<path d="M69.5979 56.3461C69.4348 56.1826 69.3125 55.9372 69.3125 55.6101V46.6553C69.3125 46.3691 69.394 46.1237 69.5571 45.9602C69.7202 45.7966 69.9648 45.7148 70.2502 45.7148H74.0011C75.1427 45.7148 76.0396 46.0011 76.6919 46.5735C77.3443 47.146 77.6704 47.9638 77.6704 48.986C77.6704 50.0082 77.3443 50.826 76.6919 51.4394C76.0396 52.0118 75.1427 52.2981 74.0011 52.2981H71.2695V55.6101C71.2695 55.8963 71.1879 56.1417 70.9841 56.3461C70.821 56.5097 70.5764 56.6323 70.2502 56.6323C70.0056 56.5915 69.761 56.5097 69.5979 56.3461ZM73.7972 50.7851C75.1427 50.7851 75.8358 50.2127 75.8358 49.0269C75.8358 47.8411 75.1427 47.2686 73.7972 47.2686H71.3102V50.826H73.7972V50.7851Z" fill="white"/>
<path d="M89.7344 55.8146C89.7344 56.0599 89.6529 56.2643 89.449 56.387C89.2451 56.5506 89.0413 56.6323 88.7967 56.6323C88.6336 56.6323 88.4705 56.5915 88.3482 56.5097C88.1851 56.4279 88.0628 56.3052 87.9813 56.1826L85.9427 53.075C85.7389 52.7478 85.535 52.5025 85.2904 52.3798C85.0458 52.2572 84.7604 52.1754 84.3935 52.1754H82.885V55.6101C82.885 55.8963 82.8034 56.1417 82.6403 56.3461C82.4773 56.5506 82.2326 56.6323 81.9472 56.6323C81.6618 56.6323 81.4172 56.5506 81.2541 56.3461C81.0911 56.1826 80.9688 55.9372 80.9688 55.6101V46.6553C80.9688 46.3691 81.0503 46.1237 81.2134 45.9602C81.3765 45.7966 81.6211 45.7148 81.9065 45.7148H85.7389C86.962 45.7148 87.8997 46.0011 88.5113 46.5326C89.1636 47.0642 89.449 47.882 89.449 48.9042C89.449 49.722 89.2044 50.4171 88.7559 50.9487C88.2667 51.4803 87.6143 51.8483 86.7582 51.9709C87.0435 52.0527 87.3289 52.1754 87.5328 52.3389C87.7366 52.5025 87.9813 52.7887 88.1851 53.1158L89.5713 55.2421C89.6529 55.4466 89.7344 55.651 89.7344 55.8146ZM87.0435 50.2536C87.4105 49.9674 87.5736 49.5585 87.5736 48.9451C87.5736 48.3727 87.4105 47.9229 87.0435 47.6367C86.7174 47.3504 86.1466 47.2278 85.4127 47.2278H82.8442V50.6625H85.4127C86.1466 50.6625 86.7174 50.4989 87.0435 50.2536Z" fill="white"/>
<path d="M95.0773 55.9776C94.3027 55.5278 93.7319 54.8736 93.2834 54.0558C92.8757 53.238 92.6719 52.2567 92.6719 51.1118C92.6719 50.0077 92.8757 49.0264 93.2834 48.1677C93.6911 47.309 94.3027 46.6957 95.0773 46.2459C95.852 45.7961 96.7489 45.5508 97.8089 45.5508C98.869 45.5508 99.7659 45.7961 100.541 46.2459C101.315 46.6957 101.886 47.3499 102.294 48.1677C102.701 48.9855 102.905 49.9668 102.905 51.1118C102.905 52.2567 102.701 53.1971 102.294 54.0558C101.886 54.9145 101.274 55.5278 100.5 55.9776C99.7252 56.4274 98.8282 56.6318 97.7682 56.6318C96.7489 56.6318 95.852 56.4274 95.0773 55.9776ZM100.133 54.0558C100.704 53.3607 100.948 52.3793 100.948 51.1118C100.948 49.8442 100.663 48.8628 100.133 48.1677C99.5621 47.4726 98.7874 47.1455 97.8089 47.1455C96.8305 47.1455 96.015 47.4726 95.485 48.1677C94.9142 48.8628 94.6696 49.8442 94.6696 51.1118C94.6696 52.3793 94.955 53.3607 95.485 54.0558C96.0558 54.7509 96.8305 55.078 97.8089 55.078C98.7874 55.078 99.5621 54.71 100.133 54.0558Z" fill="white"/>
<path d="M104.535 55.7734C104.535 55.5281 104.617 55.3236 104.739 55.201C104.861 55.0783 105.065 54.9965 105.351 54.9965L105.84 54.9556C106.248 54.9556 106.574 54.7921 106.778 54.5467C106.981 54.3014 107.104 53.9334 107.104 53.4427V46.6142C107.104 46.3279 107.185 46.0826 107.389 45.919C107.552 45.7555 107.797 45.6328 108.082 45.6328C108.368 45.6328 108.612 45.7146 108.816 45.919C108.979 46.0826 109.101 46.3279 109.101 46.6142V53.4836C109.101 55.4054 108.164 56.4685 106.248 56.5912L105.758 56.6321C104.943 56.6321 104.535 56.3459 104.535 55.7734Z" fill="white"/>
<path d="M125.491 55.9776C124.717 55.5278 124.105 54.8736 123.697 54.0558C123.29 53.238 123.086 52.2567 123.086 51.1118C123.086 50.0077 123.29 49.0264 123.697 48.1677C124.105 47.3499 124.717 46.6957 125.491 46.2459C126.266 45.7961 127.163 45.5508 128.223 45.5508C128.875 45.5508 129.528 45.6326 130.098 45.837C130.669 46.0415 131.199 46.3277 131.688 46.6957C131.811 46.8184 131.892 46.9001 131.974 47.0228C132.015 47.1455 132.055 47.2681 132.055 47.4317C132.055 47.6361 132.015 47.8406 131.852 48.0042C131.729 48.1677 131.566 48.2495 131.403 48.2495C131.199 48.2495 130.995 48.1677 130.792 48.045C130.343 47.7179 129.935 47.4726 129.568 47.3499C129.201 47.2273 128.794 47.1455 128.305 47.1455C127.245 47.1455 126.429 47.4726 125.899 48.1268C125.369 48.7811 125.084 49.7624 125.084 51.0709C125.084 52.3793 125.369 53.3607 125.899 54.0149C126.429 54.6691 127.245 54.9963 128.305 54.9963C128.753 54.9963 129.161 54.9145 129.528 54.7918C129.895 54.6691 130.302 54.4238 130.792 54.0967C130.914 54.0558 130.995 53.974 131.077 53.9331C131.199 53.8922 131.281 53.8514 131.403 53.8514C131.566 53.8514 131.729 53.9331 131.852 54.0967C131.974 54.2602 132.055 54.4238 132.055 54.6691C132.055 54.8327 132.015 54.9554 131.974 55.078C131.933 55.2007 131.811 55.3234 131.688 55.4052C131.24 55.7732 130.71 56.0594 130.098 56.2638C129.487 56.4683 128.875 56.5501 128.223 56.5501C127.204 56.6318 126.307 56.4274 125.491 55.9776Z" fill="white"/>
<path d="M137.966 56.3052C137.803 56.1417 137.681 55.8963 137.681 55.6101V47.3504H134.909C134.297 47.3504 134.012 47.0642 134.012 46.5326C134.012 46.0011 134.297 45.7148 134.909 45.7148H142.451C143.063 45.7148 143.348 46.0011 143.348 46.5326C143.348 47.0642 143.063 47.3504 142.451 47.3504H139.679V55.6101C139.679 55.8963 139.597 56.1417 139.393 56.3052C139.23 56.4688 138.986 56.5915 138.7 56.5915C138.374 56.5915 138.13 56.5097 137.966 56.3052Z" fill="white"/>
<path d="M120.066 47.2293H113.094C112.972 47.2293 112.891 47.1476 112.891 47.0249V45.7982C112.891 45.6755 112.972 45.5938 113.094 45.5938H120.066C120.189 45.5938 120.27 45.6755 120.27 45.7982V46.984C120.27 47.1067 120.189 47.2293 120.066 47.2293Z" fill="white"/>
<path d="M119.824 51.6845H112.852C112.73 51.6845 112.648 51.6028 112.648 51.4801V50.2943C112.648 50.1716 112.73 50.0898 112.852 50.0898H119.824C119.946 50.0898 120.028 50.1716 120.028 50.2943V51.4801C120.028 51.6028 119.946 51.6845 119.824 51.6845Z" fill="white"/>
<path d="M120.027 56.3056H113.055C112.933 56.3056 112.852 56.2238 112.852 56.1012V54.9154C112.852 54.7927 112.933 54.7109 113.055 54.7109H120.027C120.149 54.7109 120.231 54.7927 120.231 54.9154V56.1012C120.231 56.183 120.149 56.3056 120.027 56.3056Z" fill="white"/>
<path d="M46.3967 10.5086C45.3367 10.0588 44.2766 9.69082 43.1351 9.44548C41.9527 9.20014 40.7704 9.07748 39.5473 9.07748H8.96949V39.6628C8.96949 40.8486 9.0918 42.0344 9.33642 43.1385C5.17784 40.5215 2.44622 35.901 2.44622 30.5854V2.45337H30.537C35.2256 2.45337 39.425 4.66141 42.1566 8.05524C43.3797 8.2188 44.5213 8.50502 45.6221 8.91392C42.6458 3.59828 36.9787 0 30.4963 0H0V30.5854C0 37.6593 4.28089 43.7927 10.3557 46.4505C11.0895 48.127 12.068 49.6808 13.2504 51.0301C16.4305 54.6693 21.0783 56.9591 26.2561 56.9591H56.7524V26.3737C56.7524 19.2999 52.4715 13.2073 46.3967 10.5086ZM39.5065 11.5308C40.4035 11.5308 41.2596 11.6126 42.1158 11.7762C42.9312 11.9397 43.7466 12.1442 44.5213 12.4304C45.0513 13.9842 45.3367 15.6198 45.3367 17.3372V43.7518L37.9572 36.3508V16.3149C37.9572 15.6607 37.4272 15.0882 36.7341 15.0882C36.0818 15.0882 35.511 15.6198 35.511 16.3149V33.9383L28.417 26.8235V19.995C28.417 19.3407 27.8869 18.8501 27.1938 18.8501C26.5415 18.8501 25.9707 19.3816 25.9707 19.995V24.411L14.3512 12.7575L13.1281 11.5308H39.5065ZM12.6388 14.4749L24.4215 26.2511H11.4157V13.2482L12.6388 14.4749ZM11.4157 28.5818H26.7454L33.8394 35.6966H11.4157V28.5818ZM54.3062 54.5466H26.2561C20.956 54.5466 16.2674 51.7253 13.6581 47.5136C13.0873 46.6141 12.5981 45.6327 12.2719 44.5696C11.7419 43.0158 11.4565 41.3802 11.4565 39.6628V38.109H36.3264L43.6651 45.4692H17.2459C16.0228 45.4692 14.8404 45.3056 13.7396 45.0603C14.1473 46.0416 14.6773 46.9821 15.3297 47.7999C15.982 47.8816 16.6343 47.9225 17.2866 47.9225H47.7829V17.2963C47.7829 16.1105 47.6606 14.9247 47.416 13.8207C49.4545 15.1291 51.1668 16.9283 52.3899 19.0545C53.6131 21.2217 54.3062 23.7159 54.3062 26.3737V54.5466Z" fill="white"/>
</g>
<defs>
<clipPath id="clip0_872_5037">
<rect width="163" height="57" fill="white"/>
</clipPath>
</defs>
</svg>
