<svg width="32" height="32" viewBox="0 0 32 32" fill="none" xmlns="http://www.w3.org/2000/svg">
<g clip-path="url(#clip0_1901_16585)">
<path d="M22.6654 20.3267V29.4894C22.6654 29.6073 22.6341 29.7232 22.5747 29.8251C22.5154 29.927 22.43 30.0114 22.3274 30.0695C22.2248 30.1277 22.1086 30.1576 21.9906 30.1561C21.8727 30.1547 21.7572 30.122 21.656 30.0614L15.9987 26.6667L10.3414 30.0614C10.2401 30.1221 10.1245 30.1548 10.0065 30.1561C9.88839 30.1575 9.77208 30.1275 9.66942 30.0692C9.56676 30.0109 9.48143 29.9263 9.42215 29.8242C9.36287 29.7221 9.33177 29.6061 9.33203 29.488V20.328C7.6069 18.9468 6.35335 17.0639 5.74464 14.9394C5.13593 12.815 5.20211 10.5539 5.93402 8.46868C6.66593 6.38346 8.02745 4.57704 9.83041 3.29909C11.6334 2.02113 13.7888 1.33472 15.9987 1.33472C18.2086 1.33472 20.364 2.02113 22.167 3.29909C23.9699 4.57704 25.3315 6.38346 26.0634 8.46868C26.7953 10.5539 26.8615 12.815 26.2528 14.9394C25.644 17.0639 24.3905 18.9468 22.6654 20.328V20.3267ZM11.9987 21.8907V25.9574L15.9987 23.5574L19.9987 25.9574V21.8907C18.7278 22.4047 17.3696 22.6682 15.9987 22.6667C14.6278 22.6682 13.2696 22.4047 11.9987 21.8907ZM15.9987 20C18.1204 20 20.1553 19.1572 21.6556 17.6569C23.1558 16.1566 23.9987 14.1218 23.9987 12C23.9987 9.87832 23.1558 7.84348 21.6556 6.34319C20.1553 4.8429 18.1204 4.00005 15.9987 4.00005C13.877 4.00005 11.8421 4.8429 10.3418 6.34319C8.84155 7.84348 7.9987 9.87832 7.9987 12C7.9987 14.1218 8.84155 16.1566 10.3418 17.6569C11.8421 19.1572 13.877 20 15.9987 20Z" fill="#273F63"/>
</g>
<defs>
<clipPath id="clip0_1901_16585">
<rect width="32" height="32" fill="white"/>
</clipPath>
</defs>
</svg>
