<svg width="32" height="32" viewBox="0 0 32 32" fill="none" xmlns="http://www.w3.org/2000/svg">
<g clip-path="url(#clip0_1901_16567)">
<path d="M7.2853 5.91076C9.70471 3.81431 12.8 2.66229 16.0013 2.66676C23.3653 2.66676 29.3346 8.63609 29.3346 16.0001C29.3346 18.8481 28.4413 21.4881 26.9213 23.6534L22.668 16.0001H26.668C26.6681 13.9089 26.0536 11.8638 24.9009 10.1191C23.7481 8.37437 22.1079 7.00697 20.1842 6.18693C18.2605 5.36688 16.1383 5.13036 14.0812 5.50678C12.0242 5.88321 10.1232 6.85596 8.61464 8.30409L7.2853 5.91076ZM24.7173 26.0894C22.2979 28.1859 19.2027 29.3379 16.0013 29.3334C8.6373 29.3334 2.66797 23.3641 2.66797 16.0001C2.66797 13.1521 3.5613 10.5121 5.0813 8.34676L9.33464 16.0001H5.33464C5.33446 18.0913 5.94897 20.1364 7.10175 21.8811C8.25453 23.6258 9.89473 24.9932 11.8184 25.8133C13.7421 26.6333 15.8644 26.8698 17.9214 26.4934C19.9784 26.117 21.8794 25.1442 23.388 23.6961L24.7173 26.0894Z" fill="#273F63"/>
</g>
<defs>
<clipPath id="clip0_1901_16567">
<rect width="32" height="32" fill="white"/>
</clipPath>
</defs>
</svg>
