<?xml version="1.0" encoding="UTF-8"?>
<svg xmlns="http://www.w3.org/2000/svg" xmlns:xlink="http://www.w3.org/1999/xlink" width="32px" height="32px" viewBox="0 0 32 32" version="1.1">
<g id="surface1">
<path style=" stroke:none;fill-rule:nonzero;fill:rgb(15.294118%,24.705882%,38.823529%);fill-opacity:1;" d="M 5.332031 20 L 5.332031 11.332031 C 5.332031 9.746094 5.964844 8.21875 7.089844 7.09375 C 8.214844 5.964844 9.738281 5.332031 11.332031 5.332031 C 12.921875 5.332031 14.449219 5.964844 15.574219 7.09375 C 16.699219 8.21875 17.332031 9.746094 17.332031 11.332031 L 17.332031 20.667969 C 17.332031 21.550781 17.683594 22.402344 18.308594 23.027344 C 18.933594 23.652344 19.78125 24 20.667969 24 C 21.546875 24 22.394531 23.652344 23.019531 23.027344 C 23.644531 22.402344 24 21.550781 24 20.667969 L 24 11.777344 C 23.109375 11.457031 22.359375 10.839844 21.878906 10.027344 C 21.402344 9.214844 21.230469 8.253906 21.390625 7.324219 C 21.546875 6.394531 22.03125 5.550781 22.753906 4.941406 C 23.472656 4.332031 24.390625 4 25.332031 4 C 26.277344 4 27.1875 4.332031 27.910156 4.941406 C 28.636719 5.550781 29.113281 6.394531 29.277344 7.324219 C 29.4375 8.253906 29.261719 9.214844 28.78125 10.027344 C 28.308594 10.839844 27.558594 11.457031 26.667969 11.777344 L 26.667969 20.667969 C 26.667969 22.261719 26.03125 23.785156 24.90625 24.910156 C 23.78125 26.035156 22.253906 26.667969 20.667969 26.667969 C 19.074219 26.667969 17.546875 26.035156 16.421875 24.910156 C 15.296875 23.785156 14.667969 22.261719 14.667969 20.667969 L 14.667969 11.332031 C 14.667969 10.449219 14.3125 9.605469 13.6875 8.980469 C 13.0625 8.355469 12.214844 8 11.332031 8 C 10.449219 8 9.597656 8.355469 8.972656 8.980469 C 8.347656 9.605469 8 10.449219 8 11.332031 L 8 20 L 12 20 L 6.667969 26.667969 L 1.332031 20 Z M 25.332031 9.332031 C 25.6875 9.332031 26.027344 9.191406 26.277344 8.941406 C 26.527344 8.691406 26.667969 8.355469 26.667969 8 C 26.667969 7.644531 26.527344 7.308594 26.277344 7.058594 C 26.027344 6.808594 25.6875 6.667969 25.332031 6.667969 C 24.980469 6.667969 24.640625 6.808594 24.390625 7.058594 C 24.140625 7.308594 24 7.644531 24 8 C 24 8.355469 24.140625 8.691406 24.390625 8.941406 C 24.640625 9.191406 24.980469 9.332031 25.332031 9.332031 Z M 25.332031 9.332031 "/>
</g>
</svg>
