<?xml version="1.0" encoding="UTF-8"?>
<svg xmlns="http://www.w3.org/2000/svg" xmlns:xlink="http://www.w3.org/1999/xlink" width="24px" height="24px" viewBox="0 0 24 24" version="1.1">
<g id="surface1">
<path style=" stroke:none;fill-rule:nonzero;fill:rgb(15.294118%,24.705882%,38.823529%);fill-opacity:1;" d="M 4 15 L 4 8.5 C 4 7.308594 4.472656 6.164062 5.316406 5.320312 C 6.160156 4.472656 7.304688 4 8.5 4 C 9.691406 4 10.835938 4.472656 11.679688 5.320312 C 12.523438 6.164062 13 7.308594 13 8.5 L 13 15.5 C 13 16.164062 13.261719 16.800781 13.730469 17.269531 C 14.199219 17.738281 14.835938 18 15.5 18 C 16.160156 18 16.796875 17.738281 17.265625 17.269531 C 17.734375 16.800781 18 16.164062 18 15.5 L 18 8.832031 C 17.332031 8.59375 16.769531 8.128906 16.410156 7.519531 C 16.050781 6.910156 15.921875 6.191406 16.042969 5.492188 C 16.160156 4.796875 16.523438 4.164062 17.066406 3.707031 C 17.605469 3.25 18.292969 3 19 3 C 19.707031 3 20.390625 3.25 20.933594 3.707031 C 21.476562 4.164062 21.835938 4.796875 21.957031 5.492188 C 22.078125 6.191406 21.945312 6.910156 21.585938 7.519531 C 21.230469 8.128906 20.667969 8.59375 20 8.832031 L 20 15.5 C 20 16.695312 19.523438 17.839844 18.679688 18.683594 C 17.835938 19.527344 16.691406 20 15.5 20 C 14.304688 20 13.160156 19.527344 12.316406 18.683594 C 11.472656 17.839844 11 16.695312 11 15.5 L 11 8.5 C 11 7.835938 10.734375 7.203125 10.265625 6.734375 C 9.796875 6.265625 9.160156 6 8.5 6 C 7.835938 6 7.199219 6.265625 6.730469 6.734375 C 6.261719 7.203125 6 7.835938 6 8.5 L 6 15 L 9 15 L 5 20 L 1 15 Z M 19 7 C 19.265625 7 19.519531 6.894531 19.707031 6.707031 C 19.894531 6.519531 20 6.265625 20 6 C 20 5.734375 19.894531 5.480469 19.707031 5.292969 C 19.519531 5.105469 19.265625 5 19 5 C 18.734375 5 18.480469 5.105469 18.292969 5.292969 C 18.105469 5.480469 18 5.734375 18 6 C 18 6.265625 18.105469 6.519531 18.292969 6.707031 C 18.480469 6.894531 18.734375 7 19 7 Z M 19 7 "/>
</g>
</svg>
